<svg width="62" height="26" viewBox="0 0 62 26" fill="none" xmlns="http://www.w3.org/2000/svg">
<g filter="url(#filter0_f_213_1334)">
<path fill-rule="evenodd" clip-rule="evenodd" d="M10.0858 6C6.80518 6 4.14575 8.65943 4.14575 11.94C4.14575 14.6086 5.90554 16.8662 8.32794 17.6156L9.70737 20.7938C10.0247 21.5249 11.0279 21.6092 11.4627 20.9413L13.4557 17.88H52.0599C55.3405 17.88 57.9999 15.2206 57.9999 11.94C57.9999 8.65943 55.3405 6 52.0599 6H10.0858Z" fill="black"/>
</g>
<rect x="3" y="6" width="53.8542" height="11.88" rx="5.94" fill="white"/>
<path d="M9.31447 20.2862L8 17H13.5L10.1367 20.4495C9.88422 20.7085 9.4488 20.622 9.31447 20.2862Z" fill="white"/>
<path d="M9.30166 14.056C8.81166 14.056 8.36832 13.9487 7.97166 13.734C7.57966 13.5147 7.27166 13.216 7.04766 12.838C6.82366 12.4553 6.71166 12.026 6.71166 11.55C6.71166 11.074 6.82366 10.647 7.04766 10.269C7.27166 9.88633 7.58199 9.58767 7.97866 9.373C8.37532 9.15367 8.81866 9.044 9.30866 9.044C9.69132 9.044 10.0413 9.10933 10.3587 9.24C10.676 9.366 10.9467 9.555 11.1707 9.807L10.7157 10.248C10.347 9.86067 9.88732 9.667 9.33666 9.667C8.97266 9.667 8.64366 9.74867 8.34966 9.912C8.05566 10.0753 7.82466 10.3017 7.65666 10.591C7.49332 10.8757 7.41166 11.1953 7.41166 11.55C7.41166 11.9047 7.49332 12.2267 7.65666 12.516C7.82466 12.8007 8.05566 13.0247 8.34966 13.188C8.64366 13.3513 8.97266 13.433 9.33666 13.433C9.88266 13.433 10.3423 13.237 10.7157 12.845L11.1707 13.286C10.9467 13.538 10.6737 13.7293 10.3517 13.86C10.0343 13.9907 9.68432 14.056 9.30166 14.056ZM13.4651 12.432H12.6951V14H12.0231V10.29H12.6951V11.858H13.4791L14.6831 10.29H15.4041L13.9971 12.075L15.5021 14H14.7111L13.4651 12.432ZM17.6726 14.042C17.304 14.042 16.9726 13.9603 16.6786 13.797C16.3846 13.6337 16.1536 13.4097 15.9856 13.125C15.8223 12.8357 15.7406 12.509 15.7406 12.145C15.7406 11.781 15.8223 11.4567 15.9856 11.172C16.1536 10.8827 16.3846 10.6587 16.6786 10.5C16.9726 10.3367 17.304 10.255 17.6726 10.255C18.0413 10.255 18.3703 10.3367 18.6596 10.5C18.9536 10.6587 19.1823 10.8827 19.3456 11.172C19.5136 11.4567 19.5976 11.781 19.5976 12.145C19.5976 12.509 19.5136 12.8357 19.3456 13.125C19.1823 13.4097 18.9536 13.6337 18.6596 13.797C18.3703 13.9603 18.0413 14.042 17.6726 14.042ZM17.6726 13.454C17.9106 13.454 18.123 13.4003 18.3096 13.293C18.501 13.181 18.6503 13.027 18.7576 12.831C18.865 12.6303 18.9186 12.4017 18.9186 12.145C18.9186 11.8883 18.865 11.662 18.7576 11.466C18.6503 11.2653 18.501 11.1113 18.3096 11.004C18.123 10.8967 17.9106 10.843 17.6726 10.843C17.4346 10.843 17.22 10.8967 17.0286 11.004C16.842 11.1113 16.6926 11.2653 16.5806 11.466C16.4733 11.662 16.4196 11.8883 16.4196 12.145C16.4196 12.4017 16.4733 12.6303 16.5806 12.831C16.6926 13.027 16.842 13.181 17.0286 13.293C17.22 13.4003 17.4346 13.454 17.6726 13.454ZM24.005 10.29V14H23.333V10.878H21.24V14H20.568V10.29H24.005ZM25.3053 10.29H25.9773V14H25.3053V10.29ZM25.6413 9.576C25.5106 9.576 25.401 9.534 25.3123 9.45C25.2283 9.366 25.1863 9.26333 25.1863 9.142C25.1863 9.02067 25.2283 8.918 25.3123 8.834C25.401 8.74533 25.5106 8.701 25.6413 8.701C25.772 8.701 25.8793 8.743 25.9633 8.827C26.052 8.90633 26.0963 9.00667 26.0963 9.128C26.0963 9.254 26.052 9.36133 25.9633 9.45C25.8793 9.534 25.772 9.576 25.6413 9.576ZM27.2877 10.29H27.9597V12.992L30.2347 10.29H30.8437V14H30.1717V11.298L27.9037 14H27.2877V10.29ZM29.0237 9.807C28.6784 9.807 28.4101 9.72533 28.2187 9.562C28.0274 9.394 27.9294 9.15367 27.9247 8.841H28.3797C28.3844 9.01367 28.4427 9.15367 28.5547 9.261C28.6714 9.36367 28.8254 9.415 29.0167 9.415C29.2081 9.415 29.3621 9.36367 29.4787 9.261C29.5954 9.15367 29.6561 9.01367 29.6607 8.841H30.1297C30.1251 9.15367 30.0247 9.394 29.8287 9.562C29.6327 9.72533 29.3644 9.807 29.0237 9.807ZM33.7371 14.042C33.3684 14.042 33.0371 13.9603 32.7431 13.797C32.4491 13.6337 32.2181 13.4097 32.0501 13.125C31.8867 12.8357 31.8051 12.509 31.8051 12.145C31.8051 11.781 31.8867 11.4567 32.0501 11.172C32.2181 10.8827 32.4491 10.6587 32.7431 10.5C33.0371 10.3367 33.3684 10.255 33.7371 10.255C34.1057 10.255 34.4347 10.3367 34.7241 10.5C35.0181 10.6587 35.2467 10.8827 35.4101 11.172C35.5781 11.4567 35.6621 11.781 35.6621 12.145C35.6621 12.509 35.5781 12.8357 35.4101 13.125C35.2467 13.4097 35.0181 13.6337 34.7241 13.797C34.4347 13.9603 34.1057 14.042 33.7371 14.042ZM33.7371 13.454C33.9751 13.454 34.1874 13.4003 34.3741 13.293C34.5654 13.181 34.7147 13.027 34.8221 12.831C34.9294 12.6303 34.9831 12.4017 34.9831 12.145C34.9831 11.8883 34.9294 11.662 34.8221 11.466C34.7147 11.2653 34.5654 11.1113 34.3741 11.004C34.1874 10.8967 33.9751 10.843 33.7371 10.843C33.4991 10.843 33.2844 10.8967 33.0931 11.004C32.9064 11.1113 32.7571 11.2653 32.6451 11.466C32.5377 11.662 32.4841 11.8883 32.4841 12.145C32.4841 12.4017 32.5377 12.6303 32.6451 12.831C32.7571 13.027 32.9064 13.181 33.0931 13.293C33.2844 13.4003 33.4991 13.454 33.7371 13.454ZM39.1594 12.075C39.6401 12.1963 39.8804 12.4973 39.8804 12.978C39.8804 13.3047 39.7568 13.5567 39.5094 13.734C39.2668 13.9113 38.9028 14 38.4174 14H36.6324V10.29H38.3544C38.7931 10.29 39.1361 10.374 39.3834 10.542C39.6308 10.7053 39.7544 10.9387 39.7544 11.242C39.7544 11.438 39.7008 11.6083 39.5934 11.753C39.4908 11.893 39.3461 12.0003 39.1594 12.075ZM37.2904 11.886H38.2984C38.5551 11.886 38.7488 11.8393 38.8794 11.746C39.0148 11.6527 39.0824 11.5173 39.0824 11.34C39.0824 10.9853 38.8211 10.808 38.2984 10.808H37.2904V11.886ZM38.3684 13.482C38.6484 13.482 38.8584 13.4377 38.9984 13.349C39.1384 13.2603 39.2084 13.1227 39.2084 12.936C39.2084 12.7447 39.1431 12.6023 39.0124 12.509C38.8864 12.4157 38.6858 12.369 38.4104 12.369H37.2904V13.482H38.3684ZM42.2553 10.255C42.7686 10.255 43.1606 10.381 43.4313 10.633C43.7066 10.885 43.8443 11.2607 43.8443 11.76V14H43.2073V13.51C43.0953 13.6827 42.9343 13.8157 42.7243 13.909C42.5189 13.9977 42.2739 14.042 41.9893 14.042C41.5739 14.042 41.2403 13.9417 40.9883 13.741C40.7409 13.5403 40.6173 13.2767 40.6173 12.95C40.6173 12.6233 40.7363 12.362 40.9743 12.166C41.2123 11.9653 41.5903 11.865 42.1083 11.865H43.1723V11.732C43.1723 11.4427 43.0883 11.221 42.9203 11.067C42.7523 10.913 42.5049 10.836 42.1783 10.836C41.9589 10.836 41.7443 10.8733 41.5343 10.948C41.3243 11.018 41.1469 11.1137 41.0023 11.235L40.7223 10.731C40.9136 10.577 41.1423 10.4603 41.4083 10.381C41.6743 10.297 41.9566 10.255 42.2553 10.255ZM42.1013 13.524C42.3579 13.524 42.5796 13.468 42.7663 13.356C42.9529 13.2393 43.0883 13.076 43.1723 12.866V12.348H42.1363C41.5669 12.348 41.2823 12.5393 41.2823 12.922C41.2823 13.1087 41.3546 13.2557 41.4993 13.363C41.6439 13.4703 41.8446 13.524 42.1013 13.524ZM45.0543 10.29H45.7263V11.865H47.8403V10.29H48.5123V14H47.8403V12.446H45.7263V14H45.0543V10.29ZM51.408 14.042C51.0393 14.042 50.708 13.9603 50.414 13.797C50.12 13.6337 49.889 13.4097 49.721 13.125C49.5576 12.8357 49.476 12.509 49.476 12.145C49.476 11.781 49.5576 11.4567 49.721 11.172C49.889 10.8827 50.12 10.6587 50.414 10.5C50.708 10.3367 51.0393 10.255 51.408 10.255C51.7766 10.255 52.1056 10.3367 52.395 10.5C52.689 10.6587 52.9176 10.8827 53.081 11.172C53.249 11.4567 53.333 11.781 53.333 12.145C53.333 12.509 53.249 12.8357 53.081 13.125C52.9176 13.4097 52.689 13.6337 52.395 13.797C52.1056 13.9603 51.7766 14.042 51.408 14.042ZM51.408 13.454C51.646 13.454 51.8583 13.4003 52.045 13.293C52.2363 13.181 52.3856 13.027 52.493 12.831C52.6003 12.6303 52.654 12.4017 52.654 12.145C52.654 11.8883 52.6003 11.662 52.493 11.466C52.3856 11.2653 52.2363 11.1113 52.045 11.004C51.8583 10.8967 51.646 10.843 51.408 10.843C51.17 10.843 50.9553 10.8967 50.764 11.004C50.5773 11.1113 50.428 11.2653 50.316 11.466C50.2086 11.662 50.155 11.8883 50.155 12.145C50.155 12.4017 50.2086 12.6303 50.316 12.831C50.428 13.027 50.5773 13.181 50.764 13.293C50.9553 13.4003 51.17 13.454 51.408 13.454Z" fill="black"/>
<defs>
<filter id="filter0_f_213_1334" x="0.145752" y="2" width="61.8541" height="23.3958" filterUnits="userSpaceOnUse" color-interpolation-filters="sRGB">
<feFlood flood-opacity="0" result="BackgroundImageFix"/>
<feBlend mode="normal" in="SourceGraphic" in2="BackgroundImageFix" result="shape"/>
<feGaussianBlur stdDeviation="2" result="effect1_foregroundBlur_213_1334"/>
</filter>
</defs>
</svg>
