<svg width="52" height="53" viewBox="0 0 52 53" fill="none" xmlns="http://www.w3.org/2000/svg">
<path d="M26.0454 1.11084C25.5235 1.11084 25.0099 1.12746 24.4963 1.1607C24.1566 1.17732 23.8998 1.46818 23.9246 1.80891C23.9412 2.13301 24.2146 2.38232 24.5708 2.38232C25.0596 2.35739 25.5567 2.34077 26.0537 2.34077C39.4248 2.34077 50.294 13.2522 50.294 26.6568C50.294 40.0613 39.4165 50.9811 26.0454 50.9811C12.6744 50.9811 1.8052 40.0696 1.8052 26.6651C1.8052 26.1665 1.82177 25.6761 1.84662 25.1775C1.8549 25.0113 1.8052 24.8534 1.6975 24.7371C1.5898 24.6124 1.44068 24.5376 1.25014 24.5293C0.910479 24.5293 0.645377 24.7786 0.628809 25.1027C0.595671 25.618 0.579102 26.1332 0.579102 26.6568C0.579102 40.7428 12.0033 52.2027 26.0454 52.2027C40.0876 52.2027 51.5118 40.7428 51.5118 26.6568C51.5118 12.5708 40.0876 1.11084 26.0454 1.11084Z" fill="#DFF6FF"/>
<path d="M2.29429 19.2856C2.35229 19.3022 2.41856 19.3189 2.48484 19.3189C2.74994 19.3189 2.9819 19.1526 3.06475 18.9033C3.40441 17.8978 3.81035 16.9006 4.28256 15.9449C4.43168 15.6457 4.30741 15.2717 4.00089 15.1221C3.91804 15.0806 3.82691 15.0557 3.7275 15.0557C3.49554 15.0557 3.28014 15.1886 3.18073 15.3964C2.69195 16.4019 2.26116 17.449 1.90493 18.5044C1.79723 18.8285 1.9712 19.1776 2.29429 19.2856Z" fill="#DFF6FF"/>
<path d="M15.1019 4.88402C15.193 4.88402 15.2842 4.8674 15.367 4.81753C16.328 4.34385 17.3221 3.93664 18.3163 3.59592C18.6394 3.48788 18.8051 3.13885 18.6974 2.81475C18.6145 2.56544 18.3826 2.39923 18.1175 2.39923C18.0512 2.39923 17.9849 2.40754 17.9186 2.43247C16.8665 2.78982 15.8227 3.22195 14.8202 3.71226C14.5137 3.86185 14.3895 4.2275 14.5386 4.53498C14.6546 4.75105 14.8617 4.88402 15.1019 4.88402Z" fill="#DFF6FF"/>
<path d="M7.35614 10.8424C7.53011 10.8424 7.70409 10.7677 7.82007 10.6347C8.52424 9.83689 9.27813 9.07235 10.0734 8.37428C10.1977 8.26624 10.2723 8.11666 10.2805 7.95045C10.2888 7.78425 10.2391 7.62635 10.1314 7.51C10.0154 7.37704 9.84975 7.30225 9.67578 7.30225C9.52666 7.30225 9.38583 7.36042 9.26984 7.45183C8.43312 8.18314 7.63781 8.98924 6.9005 9.82858C6.7928 9.95324 6.74309 10.1111 6.75138 10.269C6.75966 10.4352 6.83422 10.5848 6.95849 10.6929C7.06618 10.7843 7.2153 10.8424 7.35614 10.8424Z" fill="#DFF6FF"/>
<path d="M19.443 37.0364C20.4703 37.0364 21.4975 36.8535 22.4917 36.4962L22.9556 36.33L22.939 36.8286C22.8976 37.9089 22.4254 39.8702 19.6915 40.9173C19.4181 41.0253 19.2524 41.3079 19.3104 41.5987C19.3601 41.8896 19.617 42.0973 19.9152 42.0973H32.1844C32.4827 42.0973 32.7312 41.8896 32.7892 41.5987C32.8389 41.3079 32.6815 41.017 32.4081 40.9173C29.6825 39.8702 29.202 37.9089 29.1606 36.8286L29.144 36.33L29.608 36.4962C30.6104 36.8535 31.6377 37.0364 32.6566 37.0364C37.6853 37.0364 41.7695 32.9394 41.7695 27.895C41.7695 23.8977 39.0937 20.2911 35.2745 19.1442L35.0757 19.0861L35.0426 18.8783C34.3301 14.4406 30.5524 11.2162 26.054 11.2162C21.5555 11.2162 17.7778 14.4406 17.0654 18.8783L17.0322 19.0861L16.8334 19.1442C13.006 20.2994 10.3384 23.8977 10.3384 27.895C10.3301 32.9394 14.4143 37.0364 19.443 37.0364ZM29.318 40.3189L29.8234 40.884H22.2845L22.7899 40.3189C24.2811 38.6569 24.2231 36.7206 24.132 35.9643L24.1071 35.7483L24.2894 35.6319C24.861 35.2746 25.3746 34.8674 25.822 34.4269L26.054 34.1942L26.2859 34.4269C26.7333 34.8674 27.2469 35.2746 27.8185 35.6319L28.0008 35.7483L27.9759 35.9643C27.8848 36.7206 27.8268 38.6569 29.318 40.3189ZM17.7198 20.1747C17.9766 20.1165 18.1755 19.9005 18.2003 19.6345C18.5731 15.5376 21.9449 12.4461 26.054 12.4461C30.163 12.4461 33.5348 15.5376 33.9076 19.6345C33.9325 19.9005 34.123 20.1165 34.3881 20.1747C37.967 20.9725 40.56 24.2218 40.56 27.895C40.56 32.2579 37.0225 35.8064 32.6732 35.8064C30.2873 35.8064 28.0505 34.7344 26.5427 32.8646C26.4268 32.7233 26.2528 32.6402 26.0705 32.6402C25.8883 32.6402 25.7143 32.7233 25.5983 32.8646C24.0905 34.7344 21.8537 35.8064 19.4678 35.8064C15.1185 35.8064 11.5811 32.2579 11.5811 27.895C11.5479 24.2218 14.1492 20.9808 17.7198 20.1747Z" fill="#DFF6FF"/>
<path d="M28.307 36.006L28.3567 35.5822L28.0004 35.3578C27.4537 35.0088 26.9566 34.6182 26.5258 34.1944L26.0536 33.729L25.5814 34.1944C25.1506 34.6182 24.6535 35.0088 24.1068 35.3578L23.7505 35.5822L23.8002 36.006C23.8831 36.7124 23.9411 38.5324 22.541 40.0947L21.5386 41.2166H23.0463H29.0857H30.5935L29.591 40.0947C28.1661 38.5324 28.2158 36.7124 28.307 36.006ZM29.0691 40.5435H23.0298C24.3801 39.0393 24.6121 37.2027 24.4547 35.9229C25.0263 35.5656 25.5565 35.1501 26.0453 34.6681C26.5341 35.1501 27.0643 35.5656 27.6359 35.9229C27.4868 37.2027 27.7188 39.031 29.0691 40.5435Z" fill="#80DCFB"/>
<path d="M15.1014 5.22463C15.2422 5.22463 15.383 5.19139 15.5156 5.12491C16.4517 4.65953 17.4376 4.26064 18.4234 3.91991C18.9205 3.75371 19.1856 3.21354 19.0199 2.71492C18.8873 2.31602 18.5228 2.06671 18.1252 2.06671C18.0258 2.06671 17.9264 2.08333 17.8187 2.11657C16.75 2.47392 15.6978 2.91436 14.6789 3.41298C14.2066 3.64567 14.0161 4.21077 14.2481 4.68446C14.4138 5.02519 14.7534 5.22463 15.1014 5.22463ZM14.8363 4.17753C14.8528 4.13598 14.886 4.06119 14.9771 4.01964C15.9629 3.53764 16.9902 3.1055 18.034 2.75647C18.0672 2.74816 18.092 2.73985 18.1252 2.73985C18.2246 2.73985 18.3406 2.79802 18.382 2.93099C18.4151 3.0224 18.3903 3.1055 18.3654 3.14705C18.3489 3.1886 18.2992 3.25509 18.208 3.28833C17.189 3.62905 16.1866 4.04457 15.2173 4.52657C15.1759 4.54319 15.1345 4.5515 15.0931 4.5515C15.0102 4.5515 14.9025 4.50994 14.8445 4.3936C14.8114 4.30219 14.828 4.21909 14.8363 4.17753Z" fill="#80DCFB"/>
<path d="M19.4433 36.1473C21.9369 36.1473 24.2649 35.0338 25.8389 33.0808C25.8886 33.0144 25.9715 32.9811 26.0543 32.9811C26.1371 32.9811 26.22 33.0144 26.2697 33.0808C27.8437 35.0255 30.1717 36.1473 32.6653 36.1473C37.1969 36.1473 40.8917 32.4493 40.8917 27.8952C40.8917 24.0641 38.1827 20.6818 34.463 19.8508C34.347 19.8259 34.2559 19.7262 34.2476 19.6015C33.8582 15.33 30.3456 12.1056 26.0626 12.1056C21.7795 12.1056 18.2587 15.33 17.8776 19.6015C17.8693 19.7262 17.7782 19.8176 17.6622 19.8508C13.9342 20.6818 11.2335 24.0641 11.2335 27.8952C11.2169 32.4493 14.9035 36.1473 19.4433 36.1473ZM17.7947 20.5073C18.2007 20.4159 18.4989 20.0752 18.532 19.668C18.8883 15.7455 22.1192 12.7787 26.0543 12.7787C29.9894 12.7787 33.2203 15.7372 33.5766 19.6597C33.618 20.0752 33.9162 20.4159 34.3139 20.499C37.7354 21.2636 40.2207 24.3716 40.2207 27.8869C40.2207 32.067 36.8323 35.4659 32.6653 35.4659C30.3788 35.4659 28.2414 34.4354 26.7916 32.6487C26.6094 32.4243 26.3443 32.2997 26.0543 32.2997C25.7726 32.2997 25.4992 32.4326 25.317 32.6487C23.8755 34.4354 21.7298 35.4659 19.4433 35.4659C15.2763 35.4659 11.8879 32.067 11.8879 27.8869C11.8879 24.3799 14.3733 21.2719 17.7947 20.5073Z" fill="#80DCFB"/>
<path d="M19.4428 37.3773C20.5363 37.3773 21.605 37.1778 22.6074 36.8205C22.566 37.9424 22.0606 39.6543 19.5753 40.6017C19.1445 40.7679 18.896 41.2083 18.9788 41.6654C19.0617 42.1142 19.451 42.4466 19.9067 42.4466H32.1759C32.6316 42.4466 33.0209 42.1225 33.1038 41.6654C33.1866 41.2166 32.9381 40.7679 32.5073 40.6017C30.0303 39.6543 29.5249 37.9424 29.4752 36.8205C30.4776 37.1778 31.5463 37.3773 32.6399 37.3773C37.8508 37.3773 42.0924 33.1224 42.0924 27.8952C42.0924 23.7234 39.3005 20.0087 35.3571 18.8203C34.6198 14.2497 30.7262 10.8757 26.0372 10.8757C21.3482 10.8757 17.4462 14.2497 16.7172 18.8203C12.7738 20.0087 9.98193 23.7234 9.98193 27.8952C9.99022 33.1224 14.2318 37.3773 19.4428 37.3773ZM16.9243 19.4685L17.3302 19.3439L17.3965 18.9284C18.0841 14.6569 21.721 11.5488 26.0537 11.5488C30.3865 11.5488 34.0234 14.6486 34.711 18.9284L34.7772 19.3439L35.1832 19.4685C38.8697 20.5821 41.4379 24.0475 41.4379 27.8952C41.4379 32.7484 37.5028 36.7041 32.6564 36.7041C31.6706 36.7041 30.6764 36.5296 29.7155 36.1889L28.7793 35.8565L28.8207 36.8454C28.8622 38.0089 29.3758 40.1197 32.2836 41.2333C32.4079 41.2831 32.4824 41.4078 32.4576 41.5408C32.4327 41.6737 32.3168 41.7651 32.1842 41.7651H19.915C19.7824 41.7651 19.6664 41.6737 19.6416 41.5408C19.6167 41.4078 19.6913 41.2748 19.8156 41.2333C22.7234 40.1197 23.2287 38.0089 23.2784 36.8454L23.3199 35.8565L22.3837 36.1889C21.4227 36.5296 20.4369 36.7041 19.4428 36.7041C14.6046 36.7041 10.6613 32.7567 10.6613 27.8952C10.6613 24.0475 13.2377 20.5738 16.9243 19.4685Z" fill="#80DCFB"/>
<path d="M2.18681 19.6014C2.28622 19.6347 2.38563 19.6513 2.48505 19.6513C2.8827 19.6513 3.24721 19.402 3.37976 19.0031C3.71114 18.0059 4.11708 17.0252 4.58101 16.0862C4.81297 15.6125 4.62243 15.0474 4.15022 14.8147C4.01767 14.7482 3.87683 14.715 3.736 14.715C3.38805 14.715 3.04839 14.9061 2.8827 15.2468C2.38563 16.2607 1.94656 17.3244 1.59033 18.3964C1.42464 18.8951 1.68974 19.4352 2.18681 19.6014ZM3.48746 15.546C3.54545 15.4297 3.65315 15.3881 3.736 15.3881C3.77742 15.3881 3.81884 15.3964 3.86026 15.413C4.0011 15.4795 4.0508 15.6457 3.98453 15.787C3.51232 16.751 3.09809 17.7649 2.75015 18.787C2.70873 18.92 2.58446 18.9782 2.48505 18.9782C2.45191 18.9782 2.42706 18.9699 2.39392 18.9615C2.25308 18.9117 2.17024 18.7538 2.21994 18.6125C2.57618 17.5654 2.99868 16.5349 3.48746 15.546Z" fill="#80DCFB"/>
<path d="M26.0453 0.778625C25.5151 0.778625 24.9931 0.795246 24.4712 0.828487C23.9493 0.861728 23.5516 1.31048 23.5848 1.83403C23.6179 2.34096 24.0321 2.73155 24.5292 2.73155C24.5458 2.73155 24.5706 2.73155 24.5872 2.73155C25.0677 2.70662 25.5565 2.69 26.0453 2.69C39.2258 2.69 49.9541 13.4519 49.9541 26.6736C49.9541 39.8953 39.2341 50.6405 26.0453 50.6405C12.8647 50.6405 2.13639 39.8787 2.13639 26.657C2.13639 26.1667 2.15296 25.6763 2.17781 25.1943C2.21095 24.6708 1.8133 24.222 1.29138 24.1888C1.27481 24.1888 1.25824 24.1888 1.24996 24.1888C0.736324 24.1888 0.322102 24.5711 0.288965 25.078C0.255827 25.6016 0.239258 26.1251 0.239258 26.657C0.239258 40.9258 11.8126 52.5353 26.037 52.5353C40.2613 52.5353 51.8347 40.9258 51.8347 26.657C51.8513 12.3881 40.2779 0.778625 26.0453 0.778625ZM26.0453 51.8705C12.1854 51.8705 0.918582 40.5601 0.918582 26.657C0.918582 26.15 0.93515 25.6265 0.968288 25.1196C0.976572 24.97 1.09255 24.8619 1.25824 24.8619C1.35766 24.8702 1.42393 24.9201 1.44878 24.9533C1.47364 24.9866 1.52334 25.0531 1.51506 25.1528C1.48192 25.6514 1.47364 26.1583 1.47364 26.657C1.47364 40.2526 12.5002 51.3137 26.0535 51.3137C39.6069 51.3137 50.6335 40.2526 50.6335 26.657C50.6335 13.0613 39.6069 2.00024 26.0535 2.00024C25.5565 2.00024 25.0511 2.01686 24.5375 2.04179C24.3884 2.04179 24.2724 1.92545 24.2641 1.78417C24.2558 1.63459 24.3718 1.50162 24.5209 1.49331C25.0428 1.46007 25.5565 1.45176 26.0535 1.45176C39.9134 1.45176 51.1885 12.7621 51.1885 26.657C51.1802 40.5601 39.9051 51.8705 26.0453 51.8705Z" fill="#80DCFB"/>
<path d="M7.35594 11.1749C7.62105 11.1749 7.87786 11.0669 8.06841 10.8508C8.75601 10.0613 9.5099 9.31338 10.2969 8.61531C10.6863 8.26628 10.7277 7.66793 10.388 7.27735C10.1975 7.06128 9.94069 6.95325 9.67559 6.95325C9.45191 6.95325 9.22823 7.02804 9.05425 7.18594C8.20924 7.93386 7.39737 8.73997 6.65177 9.59593C6.30382 9.98651 6.34524 10.5932 6.7429 10.9339C6.91687 11.1001 7.14055 11.1749 7.35594 11.1749ZM7.14883 10.0447C7.86958 9.21365 8.6566 8.42417 9.48505 7.70118C9.55132 7.643 9.6176 7.63469 9.6673 7.63469C9.71701 7.63469 9.79985 7.643 9.87441 7.72611C9.97383 7.84245 9.96554 8.01697 9.84956 8.11669C9.04597 8.82307 8.27552 9.59593 7.56306 10.4103C7.4885 10.4934 7.40565 10.5018 7.35594 10.5018C7.30624 10.5018 7.23996 10.4934 7.17369 10.4353C7.09913 10.3688 7.08256 10.2857 7.08256 10.2441C7.08256 10.2026 7.08256 10.1195 7.14883 10.0447Z" fill="#80DCFB"/>
<path d="M15.1014 5.22463C15.2422 5.22463 15.383 5.19139 15.5156 5.12491C16.4517 4.65953 17.4376 4.26064 18.4234 3.91991C18.9205 3.75371 19.1856 3.21354 19.0199 2.71492C18.8873 2.31602 18.5228 2.06671 18.1252 2.06671C18.0258 2.06671 17.9264 2.08333 17.8187 2.11657C16.75 2.47392 15.6978 2.91436 14.6789 3.41298C14.2066 3.64567 14.0161 4.21077 14.2481 4.68446C14.4138 5.02519 14.7534 5.22463 15.1014 5.22463ZM14.5215 4.0695C14.5712 3.9116 14.6871 3.78695 14.828 3.72046C15.8304 3.23016 16.8659 2.79802 17.9264 2.44068C17.9926 2.41575 18.0589 2.40743 18.1252 2.40743C18.3903 2.40743 18.6222 2.57364 18.7051 2.82295C18.7548 2.98085 18.7465 3.14705 18.6719 3.28833C18.5974 3.43791 18.4731 3.54595 18.3157 3.59581C17.3133 3.93653 16.3192 4.34374 15.3665 4.81743C15.2836 4.85898 15.1925 4.88391 15.1014 4.88391C14.8694 4.88391 14.654 4.75094 14.5546 4.54319C14.48 4.3936 14.4717 4.22739 14.5215 4.0695Z" fill="#0ED1FB"/>
<path d="M27.9751 35.9645L28 35.7484L27.8177 35.6321C27.2461 35.2747 26.7324 34.8675 26.2851 34.4271L26.0531 34.1944L25.8211 34.4271C25.3738 34.8675 24.8519 35.2747 24.2885 35.6321L24.1063 35.7484L24.1311 35.9645C24.2222 36.7207 24.2802 38.657 22.789 40.3191L22.2837 40.8842H23.0376H29.0769H29.8308L29.3255 40.3191C27.826 38.657 27.884 36.7207 27.9751 35.9645ZM29.0686 40.5435H23.0293C24.3797 39.0393 24.6116 37.2027 24.4542 35.9229C25.0258 35.5656 25.556 35.1501 26.0448 34.6681C26.5336 35.1501 27.0638 35.5656 27.6354 35.9229C27.4863 37.2027 27.7183 39.031 29.0686 40.5435Z" fill="#0ED1FB"/>
<path d="M26.0453 0.778625C25.5151 0.778625 24.9931 0.795246 24.4712 0.828487C23.9493 0.861728 23.5516 1.31048 23.5848 1.83403C23.6179 2.34096 24.0321 2.73155 24.5292 2.73155C24.5458 2.73155 24.5706 2.73155 24.5872 2.73155C25.0677 2.70662 25.5565 2.69 26.0453 2.69C39.2258 2.69 49.9541 13.4519 49.9541 26.6736C49.9541 39.8953 39.2341 50.6405 26.0453 50.6405C12.8647 50.6405 2.13639 39.8787 2.13639 26.657C2.13639 26.1667 2.15296 25.6763 2.17781 25.1943C2.21095 24.6708 1.8133 24.222 1.29138 24.1888C1.27481 24.1888 1.25824 24.1888 1.24996 24.1888C0.736324 24.1888 0.322102 24.5711 0.288965 25.078C0.255827 25.6016 0.239258 26.1251 0.239258 26.657C0.239258 40.9258 11.8126 52.5353 26.037 52.5353C40.2613 52.5353 51.8347 40.9258 51.8347 26.657C51.8513 12.3881 40.2779 0.778625 26.0453 0.778625ZM26.0453 52.2029C12.0032 52.2029 0.578919 40.743 0.578919 26.657C0.578919 26.1417 0.595489 25.6182 0.628626 25.1029C0.645195 24.7705 0.91858 24.5295 1.27481 24.5295C1.4405 24.5378 1.58962 24.6126 1.69732 24.7373C1.80501 24.8619 1.86301 25.0198 1.84644 25.1777C1.8133 25.668 1.80502 26.1667 1.80502 26.6653C1.80502 40.0781 12.6825 50.9813 26.0453 50.9813C39.4163 50.9813 50.2855 40.0698 50.2855 26.6653C50.2855 13.2607 39.4163 2.34097 26.0453 2.34097C25.5565 2.34097 25.0594 2.35759 24.5706 2.38252H24.5292C24.2061 2.38252 23.941 2.1249 23.9162 1.80079C23.8996 1.46007 24.1564 1.16921 24.4878 1.15259C25.0097 1.11935 25.5316 1.10273 26.037 1.10273C40.0791 1.10273 51.5033 12.5627 51.5033 26.6487C51.5116 40.743 40.0874 52.2029 26.0453 52.2029Z" fill="#0ED1FB"/>
<path d="M2.18681 19.6014C2.28622 19.6347 2.38563 19.6513 2.48505 19.6513C2.8827 19.6513 3.24721 19.402 3.37976 19.0031C3.71114 18.0059 4.11708 17.0252 4.58101 16.0862C4.81297 15.6125 4.62243 15.0474 4.15022 14.8147C4.01767 14.7482 3.87683 14.715 3.736 14.715C3.38805 14.715 3.04839 14.9061 2.8827 15.2468C2.38563 16.2607 1.94656 17.3244 1.59033 18.3964C1.42464 18.8951 1.68974 19.4352 2.18681 19.6014ZM1.90514 18.5045C2.26137 17.4491 2.69216 16.402 3.18094 15.3964C3.28864 15.1887 3.49575 15.0557 3.72771 15.0557C3.81884 15.0557 3.90997 15.0806 3.99281 15.1222C4.29934 15.2718 4.4236 15.6374 4.27448 15.9449C3.80227 16.9006 3.39633 17.8978 3.05667 18.9034C2.97383 19.1527 2.74186 19.3189 2.47676 19.3189C2.41049 19.3189 2.34421 19.3106 2.27794 19.2856C1.97141 19.1776 1.79744 18.8286 1.90514 18.5045Z" fill="#0ED1FB"/>
<path d="M19.4428 37.3773C20.5363 37.3773 21.605 37.1778 22.6074 36.8205C22.566 37.9424 22.0606 39.6543 19.5753 40.6017C19.1445 40.7679 18.896 41.2083 18.9788 41.6654C19.0617 42.1142 19.451 42.4466 19.9067 42.4466H32.1759C32.6316 42.4466 33.0209 42.1225 33.1038 41.6654C33.1866 41.2166 32.9381 40.7679 32.5073 40.6017C30.0303 39.6543 29.5249 37.9424 29.4752 36.8205C30.4776 37.1778 31.5463 37.3773 32.6399 37.3773C37.8508 37.3773 42.0924 33.1224 42.0924 27.8952C42.0924 23.7234 39.3005 20.0087 35.3571 18.8203C34.6198 14.2497 30.7262 10.8757 26.0372 10.8757C21.3482 10.8757 17.4462 14.2497 16.7172 18.8203C12.7738 20.0087 9.98193 23.7234 9.98193 27.8952C9.99022 33.1224 14.2318 37.3773 19.4428 37.3773ZM16.8249 19.1444L17.0237 19.0863L17.0568 18.8785C17.7693 14.4408 21.547 11.2164 26.0454 11.2164C30.5439 11.2164 34.3216 14.4408 35.0341 18.8785L35.0672 19.0863L35.266 19.1444C39.0934 20.2996 41.761 23.8979 41.761 27.8952C41.761 32.9396 37.6768 37.0366 32.6481 37.0366C31.6209 37.0366 30.5936 36.8537 29.5995 36.4964L29.1355 36.3302L29.1521 36.8288C29.1935 37.9091 29.6657 39.8704 32.3996 40.9175C32.673 41.0255 32.8387 41.3081 32.7807 41.5989C32.731 41.8898 32.4742 42.0975 32.1759 42.0975H19.915C19.6167 42.0975 19.3682 41.8898 19.3102 41.5989C19.2605 41.3081 19.4179 41.0172 19.6913 40.9175C22.4169 39.8704 22.8974 37.9091 22.9388 36.8288L22.9554 36.3302L22.4914 36.4964C21.489 36.8537 20.47 37.0366 19.4428 37.0366C14.4141 37.0366 10.3299 32.9396 10.3299 27.8952C10.3299 23.8979 12.9975 20.2996 16.8249 19.1444Z" fill="#0ED1FB"/>
<path d="M19.4434 35.8149C21.8293 35.8149 24.0661 34.7429 25.5738 32.873C25.6898 32.7318 25.8638 32.6487 26.046 32.6487C26.2283 32.6487 26.4023 32.7318 26.5183 32.873C28.026 34.7429 30.2628 35.8149 32.6487 35.8149C36.9981 35.8149 40.5355 32.2664 40.5355 27.9035C40.5355 24.2303 37.9425 20.981 34.3636 20.1832C34.1068 20.125 33.908 19.9089 33.8831 19.643C33.5103 15.546 30.1386 12.4546 26.0295 12.4546C21.9204 12.4546 18.5486 15.546 18.1758 19.643C18.151 19.9089 17.9604 20.125 17.6953 20.1832C14.1247 20.981 11.5234 24.2303 11.5234 27.9035C11.5483 32.2581 15.094 35.8149 19.4434 35.8149ZM17.7948 20.5073C18.2007 20.4159 18.4989 20.0752 18.5321 19.6679C18.8883 15.7455 22.1192 12.7787 26.0543 12.7787C29.9894 12.7787 33.2204 15.7372 33.5766 19.6596C33.618 20.0752 33.9163 20.4159 34.3139 20.499C37.7354 21.2635 40.2207 24.3716 40.2207 27.8869C40.2207 32.0669 36.8324 35.4659 32.6653 35.4659C30.3788 35.4659 28.2414 34.4354 26.7916 32.6487C26.6094 32.4243 26.3443 32.2996 26.0543 32.2996C25.7727 32.2996 25.4993 32.4326 25.317 32.6487C23.8755 34.4354 21.7299 35.4659 19.4434 35.4659C15.2763 35.4659 11.888 32.0669 11.888 27.8869C11.888 24.3799 14.3733 21.2718 17.7948 20.5073Z" fill="#0ED1FB"/>
<path d="M7.35594 11.1749C7.62105 11.1749 7.87786 11.0669 8.06841 10.8508C8.75601 10.0613 9.5099 9.31338 10.2969 8.61531C10.6863 8.26628 10.7277 7.66793 10.388 7.27735C10.1975 7.06128 9.94069 6.95325 9.67559 6.95325C9.45191 6.95325 9.22823 7.02804 9.05425 7.18594C8.20924 7.93386 7.39737 8.73997 6.65177 9.59593C6.30382 9.98651 6.34524 10.5932 6.7429 10.9339C6.91687 11.1001 7.14055 11.1749 7.35594 11.1749ZM6.9003 9.82031C7.63762 8.98096 8.43292 8.18317 9.26965 7.44355C9.38563 7.34383 9.52647 7.29397 9.67559 7.29397C9.84956 7.29397 10.0152 7.36876 10.1312 7.50173C10.3549 7.75935 10.3301 8.14162 10.0732 8.366C9.27793 9.06407 8.51577 9.82862 7.81987 10.6264C7.70389 10.7594 7.5382 10.8342 7.35594 10.8342C7.20683 10.8342 7.06599 10.776 6.95001 10.6846C6.82574 10.5765 6.75118 10.427 6.7429 10.2608C6.7429 10.1029 6.7926 9.94496 6.9003 9.82031Z" fill="#0ED1FB"/>
</svg>
