<svg width="120" height="24" viewBox="0 0 120 24" fill="none" xmlns="http://www.w3.org/2000/svg">
<path d="M13.4512 -0.154602L68.2493 12.1856L13.4512 24.5257H120.502V-0.154602H13.4512Z" fill="#FFE544"/>
<path d="M14.0713 -0.154602H6.3097H0.14502L59.141 12.1856L0.14502 24.5257H6.3097H14.0713L73.0673 12.1856L14.0713 -0.154602Z" fill="#B81A1D"/>
<path d="M20.4092 -0.154602H0.14502V24.5257H20.4092L79.4052 12.1856L20.4092 -0.154602Z" fill="#FFE544"/>
<path d="M1 23.1694V23.6836H2.0325" stroke="white" stroke-miterlimit="10"/>
<path d="M4.36279 23.6836H116.802" stroke="white" stroke-miterlimit="10" stroke-dasharray="6.91 6.91"/>
<path d="M117.967 23.6835H118.999V23.1694" stroke="white" stroke-miterlimit="10"/>
<path d="M119 21.9397V1.81494" stroke="white" stroke-miterlimit="10" stroke-dasharray="7.32 7.32"/>
<path d="M118.999 1.20094V0.686768H117.967" stroke="white" stroke-miterlimit="10"/>
<path d="M115.637 0.686768H3.19824" stroke="white" stroke-miterlimit="10" stroke-dasharray="6.91 6.91"/>
<path d="M2.0325 0.686768H1V1.20094" stroke="white" stroke-miterlimit="10"/>
<path d="M1 2.43011V22.5549" stroke="white" stroke-miterlimit="10" stroke-dasharray="7.32 7.32"/>
<path d="M22.6631 1.3465H2.69482V22.9721H22.6631L80.7976 12.1593L22.6631 1.3465Z" fill="#FFCC44"/>
</svg>
