<svg width="15" height="13" viewBox="0 0 15 13" fill="none" xmlns="http://www.w3.org/2000/svg">
<path d="M10.8326 12.6079C10.6794 12.6079 10.5319 12.572 10.3957 12.5104L7.26903 11.0223C7.22363 11.0018 7.17256 10.9864 7.11581 10.9864C7.06474 10.9864 7.01367 10.9966 6.9626 11.0223L3.83593 12.5104C3.69975 12.5771 3.55221 12.6079 3.399 12.6079C3.12094 12.6079 2.85992 12.495 2.67833 12.3C2.50242 12.1101 2.42298 11.8587 2.47405 11.6073L3.06987 8.4617C3.0869 8.36421 3.05285 8.26671 2.97908 8.2L0.448239 5.97297C0.18721 5.74718 0.0964189 5.40851 0.20991 5.10063C0.3234 4.78761 0.612801 4.56696 0.970297 4.52078L4.46581 4.06408C4.57362 4.04869 4.66442 3.99224 4.70981 3.90501L6.27031 1.04167C6.4292 0.749184 6.75264 0.564453 7.11581 0.564453C7.47898 0.564453 7.80243 0.744053 7.96132 1.04167L9.52182 3.90501C9.56721 3.99224 9.658 4.05382 9.76582 4.06408L13.2613 4.52078C13.6188 4.56696 13.9082 4.79274 14.0217 5.10063C14.1352 5.41364 14.0444 5.74718 13.7834 5.97297L11.2525 8.2C11.1788 8.26671 11.1391 8.36421 11.1618 8.4617L11.7576 11.6073C11.803 11.8536 11.7292 12.1101 11.5533 12.3C11.3717 12.495 11.1107 12.6079 10.8326 12.6079Z" fill="#92D9DC"/>
<path d="M10.8326 12.0486C10.6794 12.0486 10.5319 12.0126 10.3957 11.9511L7.26903 10.463C7.22363 10.4424 7.17256 10.427 7.11581 10.427C7.06474 10.427 7.01367 10.4373 6.9626 10.463L3.83593 11.9511C3.69975 12.0178 3.55221 12.0486 3.399 12.0486C3.12094 12.0486 2.85992 11.9357 2.67833 11.7407C2.50242 11.5508 2.42298 11.2994 2.47405 11.0479L3.06987 7.90238C3.0869 7.80488 3.05285 7.70739 2.97908 7.64068L0.448239 5.41364C0.18721 5.18786 0.0964189 4.84919 0.20991 4.5413C0.3234 4.22829 0.612801 4.00764 0.970297 3.96145L4.46581 3.50476C4.57362 3.48936 4.66442 3.43292 4.70981 3.34568L6.27031 0.482353C6.4292 0.1796 6.75264 0 7.11581 0C7.47898 0 7.80243 0.1796 7.96132 0.477222L9.52182 3.34055C9.56721 3.42779 9.658 3.48936 9.76582 3.49963L13.2613 3.95632C13.6188 4.00251 13.9082 4.22829 14.0217 4.53617C14.1352 4.84919 14.0444 5.18273 13.7834 5.40851L11.2525 7.63555C11.1788 7.70226 11.1391 7.79975 11.1618 7.89725L11.7576 11.0428C11.803 11.2891 11.7292 11.5457 11.5533 11.7356C11.3717 11.9357 11.1107 12.0486 10.8326 12.0486Z" fill="white"/>
<path d="M7.68317 0.600376L9.24366 3.46371C9.33446 3.63304 9.51604 3.75107 9.72032 3.77672L13.2158 4.23342C13.7379 4.30013 13.9422 4.87998 13.5677 5.21352L11.0368 7.44055C10.8893 7.57397 10.8212 7.76383 10.8552 7.94856L11.4511 11.0941C11.5419 11.5611 10.9971 11.9203 10.5318 11.6996L7.40512 10.2115C7.21786 10.1243 7.00222 10.1243 6.81496 10.2115L3.6883 11.6996C3.22299 11.9203 2.67823 11.5611 2.76902 11.0941L3.36485 7.94856C3.3989 7.76383 3.3308 7.57397 3.18327 7.44055L0.652422 5.21352C0.277903 4.87998 0.482188 4.30526 1.00424 4.23342L4.49976 3.77672C4.70404 3.75107 4.88562 3.63304 4.97642 3.46371L6.53691 0.600376C6.78092 0.174468 7.45051 0.174468 7.68317 0.600376Z" fill="#FFE544"/>
<path d="M10.8612 7.94853C10.8271 7.7638 10.8952 7.57394 11.0427 7.44052L13.0742 5.64966C11.5308 6.28082 9.43118 6.67081 7.11597 6.67081C4.80076 6.67081 2.70119 6.28082 1.15771 5.64966L3.1892 7.44052C3.33674 7.57394 3.40483 7.7638 3.37078 7.94853L2.77496 11.0941C2.68417 11.561 3.22892 11.9202 3.69423 11.6996L6.8209 10.2115C7.00816 10.1243 7.22379 10.1243 7.41105 10.2115L10.5377 11.6996C11.003 11.9202 11.5478 11.561 11.457 11.0941L10.8612 7.94853Z" fill="#FFCC44"/>
</svg>
