<svg width="25" height="28" viewBox="0 0 25 28" fill="none" xmlns="http://www.w3.org/2000/svg">
<g style="mix-blend-mode:luminosity">
<path d="M18.0743 23.311L17.9154 22.8369C17.6074 22.9402 14.4617 23.7677 10.3521 23.4081L10.0911 23.3853L9.92376 23.5869C9.78028 23.7598 9.64424 23.9239 9.5151 24.0797C8.50286 25.3009 7.91459 26.0107 7.49355 26.4055C7.26001 26.6244 7.12697 26.6974 7.04796 26.7222C6.9919 26.7398 6.93003 26.7449 6.79171 26.6997L6.78765 26.6984C6.69168 26.6679 6.5917 26.5595 6.52613 26.301C6.49701 26.1862 6.48351 26.0722 6.47774 25.9847C6.47491 25.9418 6.47407 25.9073 6.4739 25.8848C6.47381 25.8736 6.47389 25.8656 6.47397 25.8611L6.47398 25.8592L6.47399 25.8589L6.474 25.8586L6.47402 25.8581L6.47404 25.8575L6.47405 25.8572L6.47431 25.8504L6.47433 25.8415L6.47995 23.0989L6.48097 22.5978H6.04721C3.23181 21.7469 1.84276 19.8096 1.15149 17.6238C0.445673 15.392 0.479721 12.9329 0.515854 11.1579C0.586953 7.66608 1.23676 4.97559 2.96148 3.1703C3.91545 2.26012 5.33374 1.57834 7.01987 1.13089C8.70454 0.683816 10.6203 0.480413 12.5243 0.501481C14.4282 0.522548 16.3042 0.767878 17.9081 1.20772C19.3829 1.61217 20.5876 2.17013 21.3803 2.83548L21.6036 3.03823C23.5634 4.81752 24.7796 8.91034 23.9789 15.7083L23.9789 15.7087C23.6077 18.886 22.2881 20.5732 21.0066 21.5108C19.9469 22.2861 18.9154 22.5623 18.2903 22.7297C18.1395 22.7701 18.0124 22.8041 17.9142 22.8373L18.0743 23.311ZM18.0743 23.311C18.1498 23.2855 18.2567 23.2571 18.3893 23.222C19.7419 22.8635 23.7713 21.7957 24.4755 15.7667M18.0743 23.311C17.709 23.4334 14.4943 24.2725 10.3085 23.9062C10.1626 24.0821 10.0239 24.2494 9.89196 24.4086C7.76137 26.9796 7.39423 27.4227 6.63637 27.175C5.93274 26.9516 5.97433 25.8405 5.97433 25.8405L24.4755 15.7667M24.4755 15.7667C25.2372 9.29917 24.2107 5.08839 22.2765 3.00173M24.4755 15.7667L22.2765 3.00173M22.2765 3.00173L21.9397 2.66805L22.2765 3.00173Z" fill="#362020" stroke="#B8B0C8"/>
<path d="M24.4755 15.7667C25.2803 8.93338 24.0889 4.6193 21.9397 2.66805L21.9409 2.66691C18.4722 -0.6653 6.75776 -1.1585 2.60792 2.81658C0.744315 4.76103 0.0878936 7.61478 0.0159571 11.1477C-0.0559795 14.6817 -0.141404 21.3019 5.97433 23.0978H5.97995L5.97433 25.8405C5.97433 25.8405 5.93274 26.9516 6.63637 27.175C7.44116 27.438 7.80534 26.9221 10.3085 23.9062C14.4943 24.2725 17.709 23.4334 18.0743 23.311C18.9195 23.0253 23.7022 22.387 24.4755 15.7667ZM10.721 21.9765C10.721 21.9765 8.07173 25.3087 7.24783 26.1738C6.97807 26.455 6.68245 26.4289 6.68695 25.8711C6.68695 25.5049 6.70718 21.3178 6.70718 21.3178C1.52213 19.8189 1.82786 14.1817 1.88406 11.2327C1.94026 8.28259 2.47529 5.86648 4.0534 4.23948C7.69406 0.796158 17.9641 1.566 20.5808 4.04674C23.7797 6.9073 22.6411 14.989 22.6479 15.2645C21.9903 20.7906 18.1147 21.1409 17.4021 21.3801C17.0975 21.4822 14.2706 22.2158 10.721 21.9765Z" fill="#B8B0C8"/>
<path d="M12.1869 4.88675C11.7541 4.88675 11.7541 5.56702 12.1869 5.57269C15.5443 5.59877 18.3093 7.95933 18.3397 12.2893C18.3397 12.7462 19.0029 12.7405 18.9972 12.2836H18.9961C18.9601 7.61805 15.9411 4.91283 12.1869 4.88675Z" fill="#B8B0C8"/>
<path d="M16.6034 11.5718C16.5933 12.023 17.2553 12.0445 17.2609 11.5876C17.316 9.01505 15.7435 6.896 12.7885 6.67264C12.3558 6.64089 12.3108 7.32684 12.7424 7.35858C15.3052 7.55473 16.6551 9.31891 16.6034 11.5718Z" fill="#B8B0C8"/>
<path d="M15.8947 14.4981C15.3394 14.1738 14.774 14.3757 14.5402 14.6943L14.0513 15.3326C13.8029 15.6568 13.3387 15.6138 13.3387 15.6138C9.9509 14.7101 9.04495 11.1341 9.04495 11.1341C9.04495 11.1341 9.00336 10.65 9.31359 10.3904L9.92505 9.88017C10.2308 9.63528 10.4241 9.0457 10.1128 8.46634C9.28099 6.95046 8.72236 6.42778 8.43799 6.02642C8.139 5.64886 7.6894 5.56383 7.22181 5.81893H7.21169C6.23942 6.39263 5.17499 7.46633 5.51556 8.57178C6.09668 9.73732 7.16448 13.4528 10.568 16.26C12.1674 17.5877 14.6987 18.9482 15.7733 19.2623L15.7834 19.2782C16.8422 19.6342 17.8718 18.5185 18.4214 17.5083V17.5004C18.6653 17.0117 18.5844 16.5491 18.2281 16.2464C17.5964 15.6251 16.6432 14.9392 15.8947 14.4981Z" fill="#B8B0C8"/>
<path d="M13.2518 9.20318C14.3319 9.26667 14.8557 9.83583 14.9119 11.0048C14.9322 11.4617 15.5897 11.4299 15.5695 10.973C15.4975 9.44694 14.7085 8.5966 13.2877 8.51723C12.855 8.49116 12.8145 9.1771 13.2518 9.20318Z" fill="#B8B0C8"/>
</g>
</svg>
