<svg width="25" height="28" viewBox="0 0 25 28" fill="none" xmlns="http://www.w3.org/2000/svg">
<path d="M6.5 26.4999L6 21.9999C4.83334 21.9999 2.7 20.4999 1.5 16.4999C4.23193e-06 11.4999 1.5 6.99994 2.5 4.99994C3.5 2.99994 5.5 1.49994 11 0.999939C16.5 0.499939 21 2.49994 22 3.99994C24 6.99994 24 11.9999 23.5 15.9999C23 19.9999 20 21.9999 17.5 22.4999C15.5 22.8999 12 22.6666 10.5 22.4999L7 26.9999L6.5 26.4999Z" fill="#2B1F46"/>
<path d="M24.4755 15.7667C25.2803 8.93338 24.0889 4.6193 21.9397 2.66805L21.9409 2.66691C18.4722 -0.6653 6.75776 -1.1585 2.60792 2.81658C0.744315 4.76103 0.0878936 7.61478 0.0159571 11.1477C-0.0559795 14.6817 -0.141404 21.3019 5.97433 23.0978H5.97995L5.97433 25.8405C5.97433 25.8405 5.93274 26.9516 6.63637 27.175C7.44116 27.438 7.80534 26.9221 10.3085 23.9062C14.4943 24.2725 17.709 23.4334 18.0743 23.311C18.9195 23.0253 23.7022 22.387 24.4755 15.7667ZM10.721 21.9765C10.721 21.9765 8.07173 25.3087 7.24783 26.1738C6.97807 26.455 6.68245 26.4289 6.68695 25.8711C6.68695 25.5049 6.70718 21.3178 6.70718 21.3178C1.52213 19.8189 1.82786 14.1817 1.88406 11.2327C1.94026 8.28259 2.47529 5.86648 4.0534 4.23948C7.69406 0.796158 17.9641 1.566 20.5808 4.04674C23.7797 6.9073 22.6411 14.989 22.6479 15.2645C21.9903 20.7906 18.1147 21.1409 17.4021 21.3802C17.0975 21.4822 14.2706 22.2158 10.721 21.9765V21.9765Z" fill="#B8B0C8"/>
<path d="M12.1867 4.88672C11.754 4.88672 11.754 5.56699 12.1867 5.57266C15.5441 5.59874 18.3092 7.9593 18.3395 12.2892C18.3395 12.7462 19.0027 12.7405 18.9971 12.2836H18.9959C18.96 7.61802 15.9409 4.9128 12.1867 4.88672V4.88672Z" fill="#B8B0C8"/>
<path d="M16.6032 11.5718C16.5931 12.0231 17.2552 12.0446 17.2608 11.5877C17.3159 9.01511 15.7434 6.89606 12.7884 6.6727C12.3556 6.64095 12.3106 7.3269 12.7423 7.35864C15.305 7.55479 16.6549 9.31897 16.6032 11.5718V11.5718Z" fill="#B8B0C8"/>
<path d="M15.8946 14.4981C15.3394 14.1739 14.774 14.3757 14.5402 14.6943L14.0512 15.3326C13.8028 15.6569 13.3386 15.6138 13.3386 15.6138C9.95086 14.7102 9.0449 11.1342 9.0449 11.1342C9.0449 11.1342 9.00332 10.65 9.31354 10.3904L9.925 9.88021C10.2307 9.63531 10.4241 9.04573 10.1127 8.46637C9.28095 6.95049 8.72231 6.42781 8.43794 6.02645C8.13895 5.64889 7.68935 5.56386 7.22176 5.81896H7.21165C6.23938 6.39266 5.17494 7.46636 5.51552 8.57181C6.09663 9.73735 7.16444 13.4528 10.5679 16.2601C12.1674 17.5877 14.6987 18.9483 15.7732 19.2623L15.7833 19.2782C16.8422 19.6342 17.8717 18.5186 18.4214 17.5084V17.5004C18.6653 17.0118 18.5844 16.5492 18.2281 16.2464C17.5964 15.6251 16.6432 14.9392 15.8946 14.4981Z" fill="#B8B0C8"/>
<path d="M13.2517 9.20327C14.3319 9.26676 14.8556 9.83593 14.9118 11.0049C14.9321 11.4618 15.5896 11.43 15.5694 10.9731C15.4975 9.44704 14.7084 8.59669 13.2877 8.51733C12.8549 8.49125 12.8144 9.17719 13.2517 9.20327V9.20327Z" fill="#B8B0C8"/>
</svg>
