<svg width="33" height="33" viewBox="0 0 33 33" fill="none" xmlns="http://www.w3.org/2000/svg">
<g filter="url(#filter0_d_37_7926)">
<path d="M16.6168 24.0741C23.0735 24.0741 28.3077 18.8922 28.3077 12.5C28.3077 6.10782 23.0735 0.925934 16.6168 0.925934C10.16 0.925934 4.92578 6.10782 4.92578 12.5C4.92578 18.8922 10.16 24.0741 16.6168 24.0741Z" fill="#2B1F46"/>
<path d="M28.5 12.5C28.5 19.1274 23.1274 24.5 16.5 24.5C9.87258 24.5 4.5 19.1274 4.5 12.5C4.5 5.87258 9.87258 0.5 16.5 0.5C23.1274 0.5 28.5 5.87258 28.5 12.5Z" stroke="#B8B0C8"/>
<path d="M21.6596 7.41544C21.6161 7.41544 21.5685 7.42364 21.5229 7.44005L9.75524 11.8662C9.42376 11.9913 9.43205 12.459 9.76767 12.5718L12.4962 13.4845L14.1412 16.7436C14.1412 16.7436 14.1412 16.7457 14.1432 16.7457L14.1474 16.7539H14.1495C14.1785 16.8133 14.2406 16.8523 14.3069 16.8523C14.3463 16.8523 14.3856 16.84 14.4209 16.8113L15.9623 15.5171L14.2406 14.2249L14.3753 15.9232L13.1384 13.3881L19.7142 9.47879L14.2406 14.229L18.5002 17.4307C18.6431 17.5374 18.8068 17.5866 18.9663 17.5866C19.304 17.5866 19.6293 17.3671 19.7204 17.0041L22.0242 7.88307C22.0885 7.63695 21.8917 7.41544 21.6596 7.41544Z" fill="#B8B0C8"/>
</g>
<defs>
<filter id="filter0_d_37_7926" x="0" y="0" width="33" height="33" filterUnits="userSpaceOnUse" color-interpolation-filters="sRGB">
<feFlood flood-opacity="0" result="BackgroundImageFix"/>
<feColorMatrix in="SourceAlpha" type="matrix" values="0 0 0 0 0 0 0 0 0 0 0 0 0 0 0 0 0 0 127 0" result="hardAlpha"/>
<feOffset dy="4"/>
<feGaussianBlur stdDeviation="2"/>
<feComposite in2="hardAlpha" operator="out"/>
<feColorMatrix type="matrix" values="0 0 0 0 0 0 0 0 0 0 0 0 0 0 0 0 0 0 0.25 0"/>
<feBlend mode="normal" in2="BackgroundImageFix" result="effect1_dropShadow_37_7926"/>
<feBlend mode="normal" in="SourceGraphic" in2="effect1_dropShadow_37_7926" result="shape"/>
</filter>
</defs>
</svg>
